<?xml version="1.0" encoding="utf-8"?>
<!-- Generator: Adobe Illustrator 23.0.1, SVG Export Plug-In . SVG Version: 6.00 Build 0)  -->
<svg version="1.1" id="Layer_1" xmlns="http://www.w3.org/2000/svg" xmlns:xlink="http://www.w3.org/1999/xlink" x="0px" y="0px"
	 viewBox="0 0 300 300" style="enable-background:new 0 0 300 300;" xml:space="preserve">
<style type="text/css">
	.st0{fill-rule:evenodd;clip-rule:evenodd;fill:#9E8317;}
	.st1{fill-rule:evenodd;clip-rule:evenodd;fill:#F8461C;}
	.st2{fill-rule:evenodd;clip-rule:evenodd;fill:#FFC07C;}
</style>
<g>
	<path class="st0" d="M228.12,25H275v93.75c-5.21,0-10.42,0-15.62,0v15.62c-5.21,0-10.42,0-15.62,0V150c-5.21,0-10.42,0-15.62,0
		v46.88h31.25c0-10.42,0-20.83,0-31.25H275v78.12c-26.04,0-52.09,0-78.12,0v15.62c-15.62,0-31.25,0-46.88,0V275
		c-20.83,0-41.67,0-62.5,0c0-5.21,0-10.42,0-15.62c-10.42,0-20.83,0-31.25,0V275c-5.21,0-10.42,0-15.62,0c0-10.42,0-20.83,0-31.25
		h15.62c0-5.21,0-10.42,0-15.62h15.62c0-5.21,0-10.42,0-15.62H87.5c0-5.21,0-10.42,0-15.62c-5.21,0-10.42,0-15.62,0v15.62
		c-5.21,0-10.42,0-15.62,0v15.62c-5.21,0-10.42,0-15.62,0c0-5.21,0-10.42,0-15.62c-5.21,0-10.42,0-15.62,0c0-10.42,0-20.83,0-31.25
		h15.62c0-5.21,0-10.42,0-15.62h15.62c0-5.21,0-10.42,0-15.62h62.5c0-5.21,0-10.42,0-15.62c-10.42,0-20.83,0-31.25,0
		c0-15.62,0-31.25,0-46.88h15.62c0-10.42,0-20.83,0-31.25h15.62c0-5.21,0-10.42,0-15.62h78.12v15.62h31.25
		C228.12,45.83,228.12,35.42,228.12,25z M212.5,71.88V87.5h15.62c0-5.21,0-10.42,0-15.62C222.92,71.88,217.71,71.88,212.5,71.88z"/>
	<path class="st1" d="M118.75,40.62h78.12v15.62h46.88v15.62H103.12V56.25h15.62V40.62z M134.38,150H150v15.62
		c-5.21,0-10.42,0-15.62,0C134.38,160.42,134.38,155.21,134.38,150z M196.88,150h15.62v15.62h-15.62V150z M150,165.62h15.62v15.62
		h46.88c0-5.21,0-10.42,0-15.62h15.62v31.25H212.5v15.62h15.62c0,0,0-10.42,0-15.62h15.62v46.88h-46.88v15.62H150V275
		c0,0-41.67,0-62.5,0c0-10.42,0-20.83,0-31.25h15.62c0-5.21,0-10.42,0-15.62c-5.21,0-10.42,0-15.62,0c0-10.42,0-20.83,0-31.25h31.25
		v15.62h15.62c0-5.21,0-10.42,0-15.62H150C150,186.46,150,176.04,150,165.62z M165.62,196.88v15.62h15.62c0-5.21,0-10.42,0-15.62
		C176.04,196.88,170.83,196.88,165.62,196.88z"/>
	<path class="st2" d="M228.12,25H275v46.88c-10.42,0-20.83,0-31.25,0c0-5.21,0-10.42,0-15.62c-5.21,0-10.42,0-15.62,0
		C228.12,45.83,228.12,35.42,228.12,25z M150,71.88h31.25v31.25h15.62v15.62c-5.21,0-10.42,0-15.62,0v15.62h46.88V150
		c-36.45,0-72.92,0-109.38,0c0-10.42,0-20.83,0-31.25H150c0-5.21,0-10.42,0-15.62c-5.21,0-10.42,0-15.62,0c0-5.21,0-10.42,0-15.62
		H150C150,82.29,150,77.08,150,71.88z M196.88,71.88h15.62V87.5h15.62v15.62h31.25v15.62c-15.62,0-31.25,0-46.88,0
		c0-5.21,0-10.42,0-15.62c-5.21,0-10.42,0-15.62,0C196.88,92.71,196.88,82.29,196.88,71.88z M103.12,87.5h15.62v31.25
		c-5.21,0-10.42,0-15.62,0C103.12,108.33,103.12,97.92,103.12,87.5z M25,181.25h31.25v15.62h15.62v15.62c-5.21,0-10.42,0-15.62,0
		v15.62c-5.21,0-10.42,0-15.62,0c0-5.21,0-10.42,0-15.62c-5.21,0-10.42,0-15.62,0C25,202.08,25,191.67,25,181.25z M165.62,196.88
		h15.62v15.62c-5.21,0-10.42,0-15.62,0C165.62,207.29,165.62,202.08,165.62,196.88z M212.5,196.88h15.62v15.62
		c-5.21,0-10.42,0-15.62,0C212.5,207.29,212.5,202.08,212.5,196.88z"/>
</g>
</svg>
